<svg xmlns="http://www.w3.org/2000/svg" viewBox="0 0 232.72 231.78"><defs><style>.cls-1{fill:#f80;}.cls-1,.cls-2,.cls-5{stroke:#000;}.cls-1,.cls-2{stroke-linecap:round;stroke-linejoin:round;stroke-width:3.73px;}.cls-2{fill:#ffd200;}.cls-3{fill:#a7dcf7;stroke:#231815;}.cls-3,.cls-5{stroke-miterlimit:10;stroke-width:3.72px;}.cls-4{fill:#85d1f7;}.cls-5{fill:#fff;}.cls-6{fill:#e3e3e3;}</style></defs><title>wapuu-mtfuji2</title><g id="Mt._Fuji" data-name="Mt. Fuji"><path d="M269.66,636.89c-16.65,0-31.77-7.51-40.36-14.53-8-6.53-12.27-13.71-12.06-20.22.26-8,4.59-13.83,11.58-15.64a17.51,17.51,0,0,1,4.32-.53c6.84,0,16.47,3.93,23,15,3.17,5.32,9.08,8.14,17.1,8.14h.61c14.41-.27,31-8.7,42.64-21.39a67.77,67.77,0,0,1-9.15.63h-1.69l-.56.61s-.41.41-.41.42c-.39.39-.82.78-1.25,1.14-.22.19-.36.31-.51.42a18.4,18.4,0,0,1-1.59,1.15l-.33.21a18.41,18.41,0,0,1-2.21,1.17c-.18.09-.39.17-.6.25a17,17,0,0,1-1.83.66c-.27.09-.55.16-.83.24-.59.15-1.21.28-1.9.4h-.11c-.21,0-.45.08-.71.11a21.84,21.84,0,0,1-2.84.19c-4.42,0-8-1.34-10.5-4-4.65-4.81-4.41-12.1-4.17-19.15,0-1,.06-2,.08-2.93-3.07-.41-6.17-.85-9.27-1.29-3.33-.48-6.8-1-10.31-1.56a32.92,32.92,0,0,1-11,3.56c-.33,0-.65.09-1,.12a13,13,0,0,1-2,6.52,10.67,10.67,0,0,1-9.29,4.74,17.61,17.61,0,0,1-4.12-.52c-11-2.65-24.56-15.56-31.12-26.31-19.08-5.22-23.93-8.94-26.14-11.89a6,6,0,0,1,1.15-8.36c18.17-14,35.53-34.63,50.22-53.26a13.6,13.6,0,0,1-1.92-4.86c-1-5.31,1.82-9.67,3.59-11.8.33-.39.66-.77,1-1.14a12,12,0,0,1-2.39-1.23,10.17,10.17,0,0,1-1.91-1.66,7.86,7.86,0,0,1,.76-11.41,8.32,8.32,0,0,1,3.53-1.71c1.16-.25,5.62-2.38,10.39-5.7l4.36-3,.14-.22c13.07-20.74,37.24-33.12,64.65-33.12.94,0,1.88,0,2.82,0A62.34,62.34,0,0,1,339.8,415c.83.54,1.62,1.09,2.56,1.76l.28.21c6.41.36,15.38.41,21.65.41,4,0,8,0,11.77,0l9.2,0c7.18,0,9.29.11,10.4.23a7.83,7.83,0,0,1,7.07,7.82,15.23,15.23,0,0,1-1.82,6.74c-2.94,5.83-10.17,13.3-21.67,16.75a29.23,29.23,0,0,1-8.33,1.2c-1,0-2,0-3.07-.15q1.1,2.61,2.06,5.31c5.64,15.94,8.14,39.85,6.37,60.93-.39,4.61-1,9.1-1.74,13.34,6.07,11.06,12.1,20.93,18.42,30.16a6,6,0,0,1-2.37,8.81C382,572.52,369,574.67,351,575c-.23.73-.47,1.49-.48,1.51-9.71,27.46-38.13,51.74-69.12,59.08A51.17,51.17,0,0,1,269.66,636.89Z" transform="translate(-170.01 -405.1)"/></g><g id="stroke"><path class="cls-1" d="M346.41,569.57a75,75,0,0,1-15.49,8.22l-.32.58c-11.21,20.52-35.55,36.29-56.61,36.69-10.5.19-18.63-3.76-23-11.06-5.77-9.69-14.78-13.21-20.7-11.69-4.33,1.12-6.92,4.77-7.09,10-.14,4.53,3.45,10.14,9.87,15.38,8.74,7.15,22.53,13.18,36.56,13.18a44.65,44.65,0,0,0,10.39-1.19c29.11-6.89,55.78-29.59,64.84-55.21l1.57-5Z" transform="translate(-170.01 -405.1)"/><path class="cls-1" d="M244.48,442.63l-5.41,3.77c-4.64,3.22-10,6.08-12.52,6.63a2.37,2.37,0,0,0-1,.48,1.86,1.86,0,0,0-.16,2.73,4.78,4.78,0,0,0,.84.73c2.43,1.64,7.32,1.68,13.71,0l1.71-.46C240.54,452.54,241.52,447.78,244.48,442.63Z" transform="translate(-170.01 -405.1)"/><path class="cls-2" d="M349.3,515.26a66.7,66.7,0,0,1-2.71,18.8,14.69,14.69,0,0,1,5.21,4c-3.13-4-10.15-6.66-17.87-6.66-1.12,0-2.24.05-3.34.16a29.75,29.75,0,0,0-24.24,16.56l-1.13,2.25h0q.21.6.36,1.14c.21.74.42,1.48.61,2.26l0,.15,0,.1c.19.74.34,1.42.47,2.06a34.27,34.27,0,0,1-1.14,19.12s0,0,0,.09a16.16,16.16,0,0,1-.48,1.89c-.07.23-.15.48-.25.75l0,.05c-.12.35-.27.74-.46,1.2l-.24.56-.16.34-.05.1-.36.71c-.07.14-.15.27-.23.41-.16.29-.34.59-.52.88l-.05.07,0,0h4.65c9.37,0,23.75-2.21,39-12.73,9.37-6.45,21.12-21.05,23.88-54,1.7-20.29-.67-43.22-6.05-58.42a88.68,88.68,0,0,0-5.57-12.6q-1.07-2-2.22-3.84l-.29-.47h0a63.67,63.67,0,0,0-15.68-17.47h0l0,0c-.53-.4-1.07-.8-1.62-1.19q-1.09-.81-2.25-1.56h0a56.54,56.54,0,0,0-29.15-8.89h0c-.87,0-1.76,0-2.63,0-25.34,0-47.61,11.33-59.58,30.32-3.6,5.72-4.82,11-3.51,15.33a10,10,0,0,0,5.17,6.23,4,4,0,0,0,1.63.29c4.51,0,18-4.1,22.42-12.15,4.39,2.7,9.22,3,14.77,3,6.32,0,12.77-2,17.41-3.59a90.76,90.76,0,0,0,9.71-4.16l-6.64,2.95" transform="translate(-170.01 -405.1)"/><path class="cls-2" d="M283.92,479.64" transform="translate(-170.01 -405.1)"/><path class="cls-1" d="M338.73,422.71a6.32,6.32,0,0,0-.67,0,1.84,1.84,0,0,0-1.51,1,1.88,1.88,0,0,0,.07,1.81,20.17,20.17,0,0,0,4,4.24l.47.4c13.4,11.42,23.62,13.82,29.84,13.82a22.85,22.85,0,0,0,6.6-.95c9.68-2.9,15.66-9,18-13.7a9.18,9.18,0,0,0,1.19-4,1.87,1.87,0,0,0-1.67-1.86c-1.32-.13-4.53-.19-9.8-.19l-9.17,0c-3.76,0-7.78,0-11.79,0-7.4,0-18-.06-24.53-.59-.36,0-.71-.05-1-.05Z" transform="translate(-170.01 -405.1)"/><path d="M267.61,439.34c-3,2.23-2.08,5,1.24,5.39s3.58.64,6.64-1.66c3.32-2.48,3.73-6.63,0-6.22S269.27,438.1,267.61,439.34Z" transform="translate(-170.01 -405.1)"/><path d="M258.85,440.42a3.73,3.73,0,1,1-3.09-3.11A3.73,3.73,0,0,1,258.85,440.42Z" transform="translate(-170.01 -405.1)"/><path d="M302,430a3.74,3.74,0,1,1-3.1-3.09A3.74,3.74,0,0,1,302,430Z" transform="translate(-170.01 -405.1)"/></g><g id="front"><path class="cls-2" d="M238.4,462.74c-2.88,0-7,2.32-9.54,5.41-1.1,1.32-2.85,4-2.31,6.86.62,3.31,2.81,5.2,6,5.2a11.33,11.33,0,0,0,7.66-3.54,10.11,10.11,0,0,0,3-9.1,6,6,0,0,0-3.43-4.58,3.71,3.71,0,0,0-1.42-.25Z" transform="translate(-170.01 -405.1)"/><path class="cls-2" d="M286.44,530.27a7.08,7.08,0,0,0-4,1.25c-7.4,4.93-5.16,14.3-3,23.36.61,2.53,1.23,5.14,1.6,7.54a55.18,55.18,0,0,1,.24,9.94c-.19,5.81-.39,11.8,2.49,14.77,1.39,1.44,3.42,2.14,6.19,2.14a17.19,17.19,0,0,0,2.09-.14l.45-.07.15,0c.5-.08.94-.17,1.36-.28l.58-.16a12.45,12.45,0,0,0,1.33-.49l.09,0,.29-.12a12.6,12.6,0,0,0,1.55-.83l.17-.1c.39-.25.8-.55,1.2-.86l.27-.23.06,0c.31-.27.61-.54.89-.82l.07-.07.22-.22c.32-.33.62-.68.89-1l.1-.12c.29-.37.57-.76.85-1.18a2.39,2.39,0,0,0,.13-.21l.05-.07c.18-.29.36-.59.52-.88.08-.14.16-.27.23-.41l.36-.71.05-.1.16-.34.24-.56c.19-.46.34-.85.46-1.2l0-.05c.1-.27.18-.52.25-.75a16.16,16.16,0,0,0,.48-1.89s0-.06,0-.09a34.27,34.27,0,0,0,1.14-19.12c-.13-.64-.28-1.32-.47-2.06l0-.1,0-.15c-.19-.78-.4-1.52-.61-2.26-1.8-6.47-10.9-21.23-19.14-21.23Z" transform="translate(-170.01 -405.1)"/><path class="cls-2" d="M209.43,529.36a14.58,14.58,0,0,1,8.83,3.3c5.41,4.16,15.37,23.29,18.25,29.86,1,2.2,2.31,7.74.33,10.77a4.72,4.72,0,0,1-4.26,2,12.07,12.07,0,0,1-2.71-.35c-11.84-2.84-28.66-21.25-30.7-31.11-.86-4.17-.1-8,2.15-10.74a10.38,10.38,0,0,1,8.11-3.76" transform="translate(-170.01 -405.1)"/><path class="cls-2" d="M345.38,492.73" transform="translate(-170.01 -405.1)"/><path class="cls-3" d="M347.12,487.08A59.11,59.11,0,0,1,315,492c-15.14-2.17-16.67-10-32-11-19.5-1.22-25,11-40,8a30.64,30.64,0,0,1-13.69-6.89C214,501.65,195.49,524,176,539c2.47,3.29,12.2,6.88,25.31,10.34a21.73,21.73,0,0,1-2.14-5.48c-.86-4.17-.1-8,2.15-10.74a10.38,10.38,0,0,1,8.11-3.76,14.58,14.58,0,0,1,8.83,3.3c4.19,3.22,11.1,15.4,15.34,23.79,11.31,2.13,22.91,4,33.4,5.55q7.1,1,14.25,2c-.05-.52-.09-1-.17-1.53-.37-2.4-1-5-1.6-7.54-2.17-9.06-4.41-18.43,3-23.36a7.08,7.08,0,0,1,4-1.25c8.24,0,17.34,14.76,19.14,21.23.21.74.42,1.48.61,2.26l0,.15,0,.1c.19.74.34,1.42.47,2.06a34.45,34.45,0,0,1,.69,10.82c34.29,3.22,65.44,3.32,80.59-3.89C369.91,536.6,356.85,508.77,347.12,487.08Z" transform="translate(-170.01 -405.1)"/><path class="cls-4" d="M378.5,564.33c-6.8-9.8-13.73-19.53-19.55-29.89a370.34,370.34,0,0,1-19.78-42.11l6.83-2.66c7.83,17,9.83,21.83,18.83,38.83a281.11,281.11,0,0,0,20.5,33.5Z" transform="translate(-170.01 -405.1)"/><path class="cls-2" d="M233.6,556.45l20.73,3.88A26.94,26.94,0,0,1,236.67,564Q235.13,560.22,233.6,556.45Z" transform="translate(-170.01 -405.1)"/><path class="cls-5" d="M334.35,459.18c-2.54-6.26-4.92-12.65-9.35-13.18-2.73-.33-5.25,1.67-7,3.5-5.75,4.27-9.06,4.24-11,3.5a6.88,6.88,0,0,1-3-2.44c-5.81,1.86-12,3.57-18.34,3.57a28,28,0,0,1-11.58-2.34,12.72,12.72,0,0,1-3.28-1.52c-4.51,8-17.85,13-22.33,13a4,4,0,0,1-1.63-.29,9.12,9.12,0,0,1-3.22-2.57,194.79,194.79,0,0,0-14.34,21.7A30.64,30.64,0,0,0,243,489c15,3,20.5-9.22,40-8,15.33,1,16.86,8.83,32,11a59.11,59.11,0,0,0,32.12-4.92C341.26,475.55,337.14,466,334.35,459.18Z" transform="translate(-170.01 -405.1)"/><path class="cls-2" d="M334.1,451.63a56.12,56.12,0,0,1-19.76,10.94c-6.12,1.86-10.83,2-15.87,6.36-1.71,1.48-6.62,5.71-5.76,10.63.79,4.54,6,6.84,7.16,7.34s4.08,1.62,10.52.77a46.14,46.14,0,0,0,14.9-4.83A64.34,64.34,0,0,0,342,471.44" transform="translate(-170.01 -405.1)"/><path class="cls-6" d="M337.67,488.5l-4.17-7.83,6.5-4.84c-.17-.16,4.67,10.5,4.67,10.5Z" transform="translate(-170.01 -405.1)"/></g></svg>